<?xml version="1.0" encoding="UTF-8"?>
<svg enable-background="new 0 0 283.5 283.5" version="1.1" viewBox="14.57 18.5 259.1 246.62" xml:space="preserve"
    xmlns="http://www.w3.org/2000/svg">
    <style type="text/css">
	.st0{fill:#fff;}
    </style>

    <path class="st0" d="m205.6 153c19.3 0 35-15.7 35-35s-15.7-35-35-35-35 15.7-35 35 15.7 35 35 35zm0-53.8c10.4 0 18.8 8.4 18.8 18.8s-8.4 18.8-18.8 18.8-18.8-8.4-18.8-18.8 8.4-18.8 18.8-18.8z"/>
    <path class="st0" d="m119.5 88.5c19.3 0 35-15.7 35-35s-15.7-35-35-35-35 15.7-35 35c0.1 19.3 15.7 35 35 35zm0-53.8c10.4 0 18.8 8.4 18.8 18.8s-8.4 18.8-18.8 18.8-18.8-8.4-18.8-18.8 8.4-18.8 18.8-18.8z"/>
    <path class="st0" d="m267.1 184.5c-3.8-3.2-15.4-12.9-33.6-9.8-12 2-38.4 12.1-53 17.9-4.2-24.1-21.7-39.5-46.1-39.5h-44.7c-19.6-12.7-36.9-19.4-54.4-21.1-5.3-0.5-10.6 1.3-14.6 4.9-3.9 3.6-6.1 8.6-6.1 13.9v58.2c0 7.3 4.3 14 10.8 17.1l74.1 34.7c6.1 2.9 12.7 4.3 19.3 4.3 5.2 0 10.4-0.9 15.4-2.7l126.9-45.7c6.3-2.3 11-7.8 12.2-14.5 1.3-6.9-1.1-13.4-6.2-17.7zm-11.4 16.8-126.9 45.7c-7.2 2.6-15.4 2.2-22.4-1l-74.1-34.7c-0.9-0.4-1.5-1.4-1.5-2.4v-58.2c0-1 0.5-1.6 0.9-2 0.3-0.3 1-0.7 1.9-0.7h0.3c9.6 0.9 25.2 3.9 48.9 19.8 1.3 0.9 2.9 1.4 4.5 1.4h47c19.2 0 28 12.8 30.3 26.9h-77.4c-4.5 0-8.1 3.6-8.1 8.1s3.6 8.1 8.1 8.1h85.9c0.5 0 1.2 0 1.7-0.2 0.6-0.1 1.2-0.3 1.7-0.5 12.5-5.2 47.2-18.8 59.6-20.9 9.6-1.6 15.8 2.2 20.6 6.2 0.9 0.7 0.9 1.7 0.8 2.3-0.1 0.4-0.4 1.6-1.8 2.1z"/>

</svg>
